<?xml version="1.0" encoding="UTF-8"?>
<svg width="24px" height="27px" viewBox="0 0 24 27" version="1.1" xmlns="http://www.w3.org/2000/svg" xmlns:xlink="http://www.w3.org/1999/xlink">
    <!-- Generator: Sketch 45.1 (43504) - http://www.bohemiancoding.com/sketch -->
    <title>Page 1</title>
    <desc>Created with Sketch.</desc>
    <defs></defs>
    <g id="Page-1" stroke="none" stroke-width="1" fill="none" fill-rule="evenodd">
        <g id="Penguin_Report_Dashboard_HD" transform="translate(-930.000000, -372.000000)" fill="#FD3D47">
            <g id="Group-16" transform="translate(467.000000, 356.000000)">
                <path d="M482.298735,16 C479.361596,16.3444391 478.607857,18.0882825 478.419882,18.8102661 C478.330537,18.7824222 478.238109,18.76489 478.149803,18.7422046 C477.959814,18.6896108 477.770856,18.6318611 477.57573,18.5875172 C477.412445,18.5503937 477.244027,18.5297675 477.078688,18.4998617 C476.881512,18.4627383 476.68331,18.4348943 476.485109,18.40808 C476.33928,18.3905478 476.198598,18.3699242 476.055843,18.3544565 C475.734393,18.3245508 475.411943,18.3080509 475.086392,18.305989 C475.054557,18.305989 475.028882,18.3008331 474.999101,18.3008331 C468.371084,18.3008331 463,23.6972305 463,30.3499977 C463,31.1935527 463.090372,32.0175191 463.255714,32.8115743 C463.258795,32.8291039 463.262903,32.8476682 463.264957,32.8651978 C463.346086,33.2446959 463.443649,33.6149013 463.559696,33.9799851 C463.559696,33.9830791 463.56175,33.9872028 463.564831,33.9892646 C465.101177,38.8640006 469.636285,42.4 475.000008,42.4 C479.522707,42.4 483.458084,39.8827195 485.503723,36.1743818 C485.672143,35.8670609 485.828249,35.5453257 485.972004,35.2194457 C485.989461,35.1771637 486.010001,35.1431343 486.025405,35.0987904 C486.146587,34.8213806 486.250309,34.5295564 486.348905,34.2366763 C486.378687,34.146959 486.415659,34.0593008 486.44544,33.9706184 C486.522463,33.7251814 486.576891,33.47768 486.63851,33.2240037 C486.673426,33.0806603 486.719639,32.943505 486.74942,32.7980946 C486.791527,32.6021574 486.808983,32.3979781 486.840821,32.1968903 C486.870602,31.9957972 486.910653,31.7967739 486.932221,31.5915413 C486.94249,31.4946036 486.939409,31.3925101 486.946597,31.2955724 C486.971244,30.9851627 487,30.6726939 487,30.3561066 C487,29.9786677 486.976381,29.6043175 486.94249,29.2372009 C486.937356,29.170169 486.930168,29.1082957 486.922978,29.0433256 C486.883953,28.6885641 486.830552,28.3369179 486.763799,27.9924788 C486.751476,27.9306027 486.737098,27.8707912 486.724773,27.8089178 C486.65802,27.496449 486.576891,27.1860393 486.488572,26.8838928 C486.474196,26.834393 486.457762,26.783861 486.440306,26.7333317 C486.341718,26.417774 486.228751,26.1104532 486.102424,25.8083067 C486.065455,25.714463 486.028483,25.6237135 485.986377,25.5319264 C485.86006,25.2462798 485.731691,24.963722 485.585872,24.6935194 C485.536578,24.5996757 485.479068,24.5089262 485.426693,24.4171391 C485.315783,24.2212019 485.202816,24.0293778 485.079584,23.8406716 C485.010777,23.7313603 484.938889,23.6199845 484.867004,23.5158212 C484.710906,23.2899782 484.549682,23.0723825 484.380215,22.856854 C484.281627,22.7331046 484.179958,22.6124493 484.076248,22.4938558 C483.965335,22.3628887 483.850316,22.2401689 483.73324,22.1164169 C483.55763,21.9277 483.375851,21.7472411 483.187929,21.5688308 C483.084207,21.4718931 482.975349,21.3749554 482.869581,21.2831842 C482.730943,21.1614966 482.597425,21.0439354 482.454696,20.9294787 C482.266763,20.7778854 482.073699,20.6324802 481.875497,20.4932737 C481.966898,19.3475721 482.898343,18.3080773 482.898343,18.3080773 C481.409241,18.0574844 480.331974,19.5631007 480.331974,19.5631007 C479.625426,18.1018151 482.300662,16.0022862 482.300662,16.0022862 L482.298735,16 Z M470.705291,26.7941147 C471.750747,26.8291764 472.696562,27.26229 473.387678,27.9573458 C474.106557,28.6792238 474.550204,29.6784853 474.550204,30.7768519 L474.550204,32.947634 L474.414647,32.947634 C473.100138,32.947634 472.285747,34.371775 472.937875,35.5205917 L473.517073,36.5239979 C473.764572,36.9509366 474.137364,37.2118466 474.545072,37.3190828 C474.838786,37.4005502 475.150982,37.4005502 475.442645,37.3190828 C475.852404,37.2118334 476.223148,36.9509366 476.470644,36.5239979 L477.049843,35.5205917 C477.704021,34.371775 476.890664,32.947634 475.563843,32.947634 L475.438554,32.947634 L475.438554,30.7768519 C475.438554,28.4555114 477.414419,26.5911525 479.78064,26.8086875 C481.843815,26.9974043 483.365832,28.850559 483.365832,30.9315551 L483.365832,33.6354298 C483.365832,37.3417075 480.821022,40.6242673 477.204992,41.3626719 C476.493316,41.5091094 475.758006,41.5854208 475.000113,41.5854208 C474.24222,41.5854208 473.501783,41.5091094 472.78598,41.3626719 C469.168978,40.6263532 466.62514,37.3438195 466.62514,33.6396538 L466.62514,30.955315 C466.62514,28.7030893 468.463402,26.7260559 470.707216,26.7931116 L470.705291,26.7941147 Z M470.589244,29.3567501 L470.589244,29.3577823 C469.725559,29.3577823 469.026214,30.0600717 469.026214,30.9273338 C469.026214,31.7935663 469.725585,32.4968853 470.589244,32.4968853 C471.451877,32.4968853 472.152274,31.7935663 472.152274,30.9273338 C472.152274,30.0600453 471.452903,29.3577823 470.589244,29.3577823 L470.589244,29.3567501 Z M479.567866,29.3567501 L479.567866,29.3577823 C478.705233,29.3577823 478.004836,30.0600717 478.004836,30.9273338 C478.004836,31.7946223 478.705233,32.4968853 479.567866,32.4968853 C480.431551,32.4968853 481.130896,31.7935663 481.130896,30.9273338 C481.130896,30.0600453 480.431525,29.3577823 479.567866,29.3577823 L479.567866,29.3567501 Z" id="Page-1"></path>
            </g>
        </g>
    </g>
</svg>