<?xml version="1.0" encoding="UTF-8"?>
<svg width="30px" height="33px" viewBox="0 0 30 33" version="1.1" xmlns="http://www.w3.org/2000/svg" xmlns:xlink="http://www.w3.org/1999/xlink">
    <!-- Generator: Sketch 45.1 (43504) - http://www.bohemiancoding.com/sketch -->
    <title>Page 1</title>
    <desc>Created with Sketch.</desc>
    <defs></defs>
    <g id="Symbols" stroke="none" stroke-width="1" fill="none" fill-rule="evenodd">
        <g id="penguinLogo" fill="#222222">
            <g id="Group-4">
                <path d="M24.1234186,0 C20.451995,0.428759967 19.5098207,2.59950723 19.2748522,3.49823702 C19.1631715,3.46357671 19.0476361,3.44175257 18.9372534,3.41351363 C18.6997677,3.34804451 18.4635701,3.2761573 18.219663,3.22095779 C18.0155559,3.17474622 17.805034,3.14907058 17.5983603,3.11184368 C17.3518899,3.06563212 17.1041378,3.0309718 16.8563857,2.99759313 C16.6740995,2.975769 16.4982478,2.95009664 16.3198032,2.93084237 C15.9179906,2.89361547 15.5149293,2.87307627 15.1079902,2.87050969 C15.0681967,2.87050969 15.036103,2.8640916 14.9988761,2.8640916 C6.71385462,2.8640916 0,9.58156112 0,17.8629677 C0,18.9130303 0.112965616,19.9387088 0.319642576,20.9271539 C0.323493759,20.9489747 0.32862856,20.9720838 0.331196124,20.9939046 C0.432607206,21.4663063 0.554560777,21.9271403 0.699620129,22.3815989 C0.699620129,22.3854504 0.702187693,22.3905836 0.706038548,22.3931501 C2.6264711,28.4612522 8.2953568,32.8628866 15.0000099,32.8628866 C20.6533844,32.8628866 25.5726056,29.72936 28.1296542,25.1131978 C28.3401794,24.7306429 28.5353117,24.3301448 28.715005,23.9244874 C28.7368259,23.8718544 28.7625015,23.8294944 28.7817558,23.7742949 C28.9332332,23.4289734 29.0628865,23.0657088 29.1861316,22.7011297 C29.2233585,22.589449 29.2695734,22.4803317 29.3068003,22.3699392 C29.4030782,22.0644177 29.4711139,21.7563264 29.5481375,21.4405485 C29.5917825,21.2621137 29.6495486,21.091382 29.6867755,20.9103741 C29.7394085,20.6664703 29.7612293,20.4123067 29.8010261,20.1619913 C29.838253,19.9116694 29.888316,19.6639239 29.9152766,19.4084491 C29.9281128,19.2877804 29.9242613,19.1606937 29.9332459,19.040025 C29.9640548,18.6536251 30,18.2646619 30,17.8705721 C30,17.4007338 29.9704761,16.9347403 29.9281128,16.4777513 C29.9216947,16.3943095 29.91271,16.3172892 29.9037221,16.236414 C29.8549406,15.7948047 29.7881899,15.3570732 29.7047481,14.9283133 C29.6893454,14.8512896 29.6713728,14.7768358 29.6559667,14.6998154 C29.572525,14.3108522 29.4711139,13.9244523 29.3607148,13.5483384 C29.3427455,13.4867208 29.322203,13.4238183 29.3003822,13.360919 C29.177147,12.9681109 29.0359391,12.5855559 28.8780304,12.209442 C28.8318189,12.0926249 28.785604,11.9796593 28.7329711,11.8654022 C28.5750756,11.5098275 28.4146134,11.1580977 28.2323403,10.8217478 C28.1707227,10.7049306 28.0988355,10.591965 28.0333664,10.4777079 C27.8947284,10.233804 27.7535206,9.9950202 27.5994798,9.76011745 C27.5134715,9.62404605 27.4236117,9.48540479 27.3337551,9.35574162 C27.1386327,9.07461087 26.9371021,8.80374644 26.7252689,8.53545516 C26.6020337,8.38141113 26.474947,8.23121862 26.3453101,8.08359269 C26.2066689,7.920564 26.0628944,7.76780163 25.9165502,7.61375432 C25.697037,7.37883842 25.4698143,7.15420198 25.2349115,6.93211569 C25.1052582,6.81144705 24.9691868,6.69077841 24.8369768,6.57654101 C24.6636785,6.42506357 24.4967819,6.27872257 24.3183701,6.13624623 C24.0834542,5.94754189 23.8421235,5.76654058 23.5943714,5.59325543 C23.708622,4.16707891 24.8729286,2.87310913 24.8729286,2.87310913 C23.011551,2.56116958 21.664968,4.43537019 21.664968,4.43537019 C20.7817823,2.61635267 24.1258274,0.00284591194 24.1258274,0.00284591194 L24.1234186,0 Z M9.63161434,13.4365822 C10.9384334,13.4802272 12.1207028,14.0193697 12.9845981,14.8845795 C13.8831965,15.7831779 14.4377549,17.0270649 14.4377549,18.3943185 L14.4377549,21.0965218 L14.2683082,21.0965218 C12.6251719,21.0965218 11.6071833,22.8693014 12.4223432,24.2993558 L13.1463419,25.5484022 C13.4557148,26.0798582 13.921705,26.4046405 14.4313401,26.5381289 C14.7984825,26.6395399 15.1887273,26.6395399 15.5533064,26.5381289 C16.0655048,26.404624 16.528935,26.0798582 16.8383047,25.5484022 L17.5623033,24.2993558 C18.3800265,22.8693014 17.3633294,21.0965218 15.7048036,21.0965218 L15.548193,21.0965218 L15.548193,18.3943185 C15.548193,15.5046992 18.0180239,13.1839335 20.9758005,13.4547224 C23.5547686,13.6896383 25.4572903,15.996457 25.4572903,18.5868941 L25.4572903,21.9526943 C25.4572903,26.5662922 22.2762771,30.6524434 17.7562394,31.5716141 C16.8666455,31.7539004 15.9475079,31.8488934 15.0001413,31.8488934 C14.0527747,31.8488934 13.1272289,31.7539004 12.2324755,31.5716141 C7.71122188,30.6550399 4.53142465,26.5689212 4.53142465,21.9579524 L4.53142465,18.6164705 C4.53142465,15.8128858 6.82925208,13.3518621 9.63401989,13.4353334 L9.63161434,13.4365822 Z M9.48655498,16.6265668 L9.48655498,16.6278518 C8.40694876,16.6278518 7.53276742,17.502066 7.53276742,18.5816393 C7.53276742,19.659931 8.40698162,20.5354269 9.48655498,20.5354269 C10.5648467,20.5354269 11.4403425,19.659931 11.4403425,18.5816393 C11.4403425,17.5020331 10.5661283,16.6278518 9.48655498,16.6278518 L9.48655498,16.6265668 Z M20.7098327,16.6265668 L20.7098327,16.6278518 C19.6315409,16.6278518 18.7560451,17.502066 18.7560451,18.5816393 C18.7560451,19.6612456 19.6315409,20.5354269 20.7098327,20.5354269 C21.7894389,20.5354269 22.6636202,19.659931 22.6636202,18.5816393 C22.6636202,17.5020331 21.789406,16.6278518 20.7098327,16.6278518 L20.7098327,16.6265668 Z" id="Page-1"></path>
            </g>
        </g>
    </g>
</svg>