<?xml version="1.0" encoding="UTF-8"?>
<svg width="65px" height="60px" viewBox="0 0 65 60" version="1.1" xmlns="http://www.w3.org/2000/svg" xmlns:xlink="http://www.w3.org/1999/xlink">
    <!-- Generator: Sketch 45.1 (43504) - http://www.bohemiancoding.com/sketch -->
    <title>zLogo</title>
    <desc>Created with Sketch.</desc>
    <defs></defs>
    <g id="Symbols" stroke="none" stroke-width="1" fill="none" fill-rule="evenodd">
        <g id="Header_Bar" transform="translate(-466.000000, 0.000000)">
            <g id="Group-7">
                <g id="zLogo" transform="translate(466.000000, 0.000000)">
                    <g id="Group-6">
                        <g id="Group-5">
                            <rect id="Rectangle-Copy" fill="#10C64E" x="0" y="0" width="65" height="60"></rect>
                            <g id="Group" transform="translate(22.000000, 20.000000)" fill="#FFFFFF">
                                <path d="M25.5058098,14.1960487 C25.882127,14.1960487 26.252411,14.2925 26.6113829,14.4861561 C26.9718631,14.6805657 27.2546666,14.9578632 27.4560227,15.3180485 C27.6558705,15.6797408 27.7554173,16.0549966 27.7554173,16.4460765 C27.7554173,16.8341422 27.6558705,17.2078909 27.4605476,17.5650621 C27.2606998,17.9229868 26.9824211,18.2010378 26.6264658,18.3984615 C26.268248,18.5966388 25.8941933,18.6945971 25.5058098,18.6945971 C25.1136557,18.6945971 24.7441258,18.5966388 24.3836456,18.3984615 C24.0276903,18.2010378 23.7524282,17.9229868 23.5495638,17.5650621 C23.3527326,17.2078909 23.2509233,16.8341422 23.2509233,16.4460765 C23.2509233,16.0549966 23.3527326,15.6797408 23.5525804,15.3180485 C23.7561989,14.9578632 24.0382483,14.6805657 24.3994826,14.4861561 C24.7569462,14.2925 25.1249678,14.1960487 25.5058098,14.1960487 L25.5058098,14.1960487 Z M25.5058098,14.5682904 C25.1898241,14.5682904 24.8821339,14.6496712 24.5819851,14.8101722 C24.2825905,14.9729337 24.0480521,15.2050196 23.8798783,15.5064299 C23.7071796,15.8078402 23.6257322,16.1205534 23.6257322,16.4460765 C23.6257322,16.770846 23.7071796,17.0812986 23.8738452,17.3789413 C24.042019,17.6758304 24.2727866,17.9079163 24.5691647,18.0729384 C24.8693134,18.2394676 25.1785119,18.3223554 25.5058098,18.3223554 C25.8308453,18.3223554 26.1407979,18.2394676 26.437176,18.0729384 C26.7350623,17.9079163 26.9665841,17.6758304 27.1340038,17.3789413 C27.2999152,17.0812986 27.3821167,16.770846 27.3821167,16.4460765 C27.3821167,16.1205534 27.2968986,15.8078402 27.1302331,15.5064299 C26.9620593,15.2050196 26.7282751,14.9729337 26.4281263,14.8101722 C26.1272234,14.6496712 25.8180249,14.5682904 25.5058098,14.5682904 L25.5058098,14.5682904 Z M24.5880182,17.6200695 L24.5880182,15.1989914 L25.4205917,15.1989914 C25.7049035,15.1989914 25.9107844,15.2208437 26.0374804,15.2653017 C26.1649305,15.3105132 26.268248,15.3881264 26.3444164,15.4988946 C26.4205849,15.61117 26.4590461,15.72872 26.4590461,15.8545588 C26.4590461,16.0308838 26.3926816,16.1853566 26.268248,16.3157165 C26.1407979,16.44683 25.9711158,16.5206755 25.7622183,16.5364995 C25.8466823,16.5726688 25.9183259,16.6148662 25.9696076,16.6653524 C26.0676461,16.7610502 26.1845382,16.9207976 26.3285795,17.1453483 L26.6226951,17.6200695 L26.1453228,17.6200695 L25.9319004,17.2372784 C25.7622183,16.9381287 25.6249644,16.7497473 25.5201385,16.6743947 C25.4507574,16.6186338 25.3459316,16.5899999 25.2071693,16.5899999 L24.9801724,16.5899999 L24.9801724,17.6200695 L24.5880182,17.6200695 L24.5880182,17.6200695 Z M24.9801724,16.257695 L25.4530198,16.257695 C25.6792626,16.257695 25.8368785,16.2230328 25.9153093,16.1552155 C25.9997733,16.0873982 26.040497,15.9977287 26.040497,15.8869604 C26.040497,15.816129 26.0201351,15.7520793 25.9801656,15.6948113 C25.9409501,15.6382969 25.8851436,15.5960995 25.8172707,15.5674655 C25.7441189,15.5403386 25.6144064,15.525268 25.4228541,15.525268 L24.9801724,15.525268 L24.9801724,16.257695 L24.9801724,16.257695 Z" id="Fill-1"></path>
                                <polygon id="Fill-8" points="6.49839871 0.227189311 19.8685936 12.9022451 19.9040383 19.0095709 7.91995759 7.64941744 0.120614396 15.1907026 0.157567386 6.36465613"></polygon>
                            </g>
                        </g>
                    </g>
                </g>
            </g>
        </g>
    </g>
</svg>