<?xml version="1.0" encoding="utf-8"?>
<!-- Generator: Adobe Illustrator 21.1.0, SVG Export Plug-In . SVG Version: 6.00 Build 0)  -->
<!DOCTYPE svg PUBLIC "-//W3C//DTD SVG 1.1//EN" "http://www.w3.org/Graphics/SVG/1.1/DTD/svg11.dtd">
<svg version="1.1" id="Layer_1" xmlns="http://www.w3.org/2000/svg" xmlns:xlink="http://www.w3.org/1999/xlink" x="0px" y="0px"
	 viewBox="0 0 260 260" style="enable-background:new 0 0 260 260;" xml:space="preserve">
<g transform="translate(0.000000,260.000000) scale(0.100000,-0.100000)">
	<path d="M999,2338c-160-319-220-622-197-986c9-129,8-171-7-262c-15-101-15-114,0-172c19-74,22-79,30-42c48,221,150,420,293,567
		c64,66,80,77,109,77c18,0,33,5,33,10c0,6-3,10-7,11c-15,1-58,9-79,14c-44,10-105,66-130,118c-61,131,3,272,140,312
		c63,18,112,13,169-18c28-16,40-18,49-9c20,20-73,54-152,54c-54,1-79-5-126-28c-32-15-63-30-68-32c-9-5,0,191,11,235
		c5,21,9,22,69,16l64-6v86v87l-70,35c-38,19-72,35-75,35C1053,2440,1027,2394,999,2338z"/>
	<path d="M2012,2285c-22-19-51-52-66-74c-26-36-27-43-16-75c6-20,29-51,51-70l40-33l-22-79c-24-90-31-101-49-79c-16,19-98,20-193,1
		c-67-13-68-13-150,20c-75,31-163,45-179,28c-3-3,5-24,18-47c18-32,24-57,24-104c0-35,2-63,5-63c2,0,23,10,46,22
		c122,63,253,28,314-84c59-107,28-235-72-298c-71-45-148-47-247-5c-16,7-17,5-8-12c8-14,34-26,81-39c61-15,71-21,76-43
		c15-72,65-426,75-533c7-68,14-129,16-137c3-8,30,24,64,76l59,91l-2,74c-2,68,2,83,59,229c82,209,144,453,204,808
		c21,127,19,203-10,296c-5,17-19,60-31,98c-13,41-26,67-35,67C2056,2320,2033,2304,2012,2285z M1856,1809c23-11,50-29,60-40
		c17-19,17-21-5-67l-23-47l-19,24c-10,13-19,30-19,38s-26,40-57,70l-58,56l39-7C1796,1832,1833,1819,1856,1809z"/>
	<path d="M1325,2237l-49-32l34-3c19-1,44-4,55-7c26-6,62-68,91-159c13-42,28-72,37-74c14-3,14,4,1,60c-25,109-46,168-76,209
		c-15,21-31,39-36,39C1378,2270,1353,2255,1325,2237z"/>
	<path d="M1355,1680c-8-14,3-30,21-30c8,0,14,9,14,20C1390,1691,1366,1698,1355,1680z"/>
	<path d="M1462,1648c-11-14-15-33-13-61c1-21,46-40,73-31c30,9,42,52,23,80C1528,1662,1480,1669,1462,1648z M1518,1607
		c2-12-3-17-17-17c-12,0-21,6-21,13C1480,1634,1512,1637,1518,1607z"/>
	<path d="M1276,1449.9c20-30,113-122.9,168-135.9c28-7,29-6,22,22c-8,32-40.5,390.4-142.9,189.1"/>
	<path d="M1425,1260c-16-16-49-40-74-52l-44-21l-21,26c-12,15-25,27-28,27c-14,0-19-144-7-232c6-51,12-101,11-110
		c-4-77,121,140,173,299c14,42,24,81,23,85C1456,1287,1442,1277,1425,1260z"/>
	<path d="M1231,1254c0-11,3-14,6-6c3,7,2,16-1,19C1233,1271,1230,1265,1231,1254z"/>
	<path d="M876,444c-3-9-6-17-6-18c0-2,40-6,88-9c156-11,335-56,571-144c80-29,148-53,153-53c4,0,8,25,8,55s-3,55-7,55
		c-5,0-31-9-59-20l-52-19l-114,39c-149,51-285,85-439,110C871,464,884,464,876,444z"/>
</g>
<path d="M171.3,224.4c0,0,5.1-24.2,18.9-38.3c13.8-14.1,11.5-8.3,11.5-8.3l0.1,12.8l20.8,5l-6.6,12.8l6.6,6.6
	c0,0-45.4,11.2-52.2,23.9L171.3,224.4z"/>
<path d="M85,212.2c0,0-0.5-19.4-10.9-50l-8.5-16.7l-2.7,16.7l-14.4-5v14.7l-16,3.9c0,0,14.9,4.3,23,18.3s14.4,28,23.7,26.8
	C88.3,219.5,85,212.2,85,212.2z"/>
</svg>
